<svg width="36" height="45" viewBox="0 0 36 45" fill="none" xmlns="http://www.w3.org/2000/svg">
<path d="M27.0004 6.71999C24.6134 4.33304 21.376 2.99207 18.0004 2.99207C14.6247 2.99207 11.3873 4.33304 9.00038 6.71999C6.61343 9.10694 5.27246 12.3443 5.27246 15.72C5.27246 19.0956 6.61343 22.333 9.00038 24.72L16.9054 32.64C17.0448 32.7806 17.2107 32.8922 17.3935 32.9683C17.5763 33.0445 17.7724 33.0837 17.9704 33.0837C18.1684 33.0837 18.3645 33.0445 18.5472 32.9683C18.73 32.8922 18.8959 32.7806 19.0354 32.64L27.0004 24.645C29.3774 22.268 30.7127 19.0441 30.7127 15.6825C30.7127 12.3209 29.3774 9.097 27.0004 6.71999ZM24.8554 22.5L18.0004 29.385L11.1454 22.5C9.7911 21.1445 8.8691 19.4179 8.49592 17.5384C8.12275 15.659 8.31517 13.7111 9.04884 11.941C9.78251 10.1709 11.0245 8.65806 12.6178 7.5937C14.2111 6.52934 16.0843 5.96126 18.0004 5.96126C19.9165 5.96126 21.7896 6.52934 23.3829 7.5937C24.9763 8.65806 26.2183 10.1709 26.9519 11.941C27.6856 13.7111 27.878 15.659 27.5048 17.5384C27.1317 19.4179 26.2097 21.1445 24.8554 22.5ZM13.5004 11.115C12.2895 12.3296 11.6095 13.9748 11.6095 15.69C11.6095 17.4051 12.2895 19.0503 13.5004 20.265C14.4 21.1662 15.5458 21.7816 16.7939 22.0341C18.042 22.2866 19.3368 22.1649 20.516 21.6842C21.6952 21.2036 22.7062 20.3854 23.4221 19.3324C24.1381 18.2793 24.5271 17.0383 24.5404 15.765C24.5471 14.9148 24.3834 14.0719 24.0587 13.2861C23.7341 12.5003 23.2552 11.7875 22.6504 11.19C22.0559 10.5819 21.347 10.0973 20.5645 9.76419C19.782 9.43108 18.9414 9.256 18.091 9.24903C17.2406 9.24206 16.3972 9.40333 15.6093 9.72357C14.8215 10.0438 14.1048 10.5167 13.5004 11.115ZM20.5354 18.135C19.9669 18.7121 19.2157 19.0738 18.4101 19.1584C17.6044 19.2429 16.7945 19.0449 16.1186 18.5984C15.4428 18.1518 14.9431 17.4844 14.7049 16.7101C14.4667 15.9359 14.5049 15.1029 14.8128 14.3537C15.1208 13.6045 15.6794 12.9855 16.3933 12.6026C17.1071 12.2197 17.9318 12.0966 18.7263 12.2544C19.5208 12.4122 20.2358 12.8411 20.7491 13.4678C21.2624 14.0944 21.5421 14.8799 21.5404 15.69C21.5186 16.6159 21.1301 17.4953 20.4604 18.135H20.5354Z" fill="#D47115"/>
<g filter="url(#filter0_f_23_1413)">
<ellipse cx="18" cy="36" rx="9" ry="2" fill="#191919" fill-opacity="0.8"/>
</g>
<defs>
<filter id="filter0_f_23_1413" x="2.9" y="27.9" width="30.2" height="16.2" filterUnits="userSpaceOnUse" color-interpolation-filters="sRGB">
<feFlood flood-opacity="0" result="BackgroundImageFix"/>
<feBlend mode="normal" in="SourceGraphic" in2="BackgroundImageFix" result="shape"/>
<feGaussianBlur stdDeviation="3.05" result="effect1_foregroundBlur_23_1413"/>
</filter>
</defs>
</svg>
