<svg width="690" height="396" viewBox="0 0 690 396" fill="none" xmlns="http://www.w3.org/2000/svg">
    <rect width="690" height="396" rx="8" fill="#292B2E"/>
    <rect x="0.5" y="0.5" width="689" height="395" rx="7.5" stroke="white" stroke-opacity="0.2"/>
    <path d="M689 73H111V393" stroke="#A6A6A6"/>
    <path d="M689 171H224V393" stroke="#A6A6A6"/>
    <path d="M511 72L524.5 62L538 72L532 84.5H517L511 72Z" fill="url(#paint0_linear_23_1602)"/>
    <path d="M626 173L639.5 163L653 173L647 185.5H632L626 173Z" fill="url(#paint1_linear_23_1602)"/>
    <path d="M368 173L381.5 163L395 173L389 185.5H374L368 173Z" fill="url(#paint2_linear_23_1602)"/>
    <path d="M216 328L229.5 318L243 328L237 340.5H222L216 328Z" fill="url(#paint3_linear_23_1602)"/>
    <path d="M137 72L150.5 62L164 72L158 84.5H143L137 72Z" fill="url(#paint4_linear_23_1602)"/>
    <path d="M97 292L110.5 282L124 292L118 304.5H103L97 292Z" fill="url(#paint5_linear_23_1602)"/>
    
    <circle cx="176" cy="245" r="12" fill="url(#paint6_linear_23_1602)">
        <animate attributeName="cx" values="176;176;215;650;195;176;176" keyTimes="0;0.15;0.2;0.5;0.8;0.85;1" dur="12s" repeatCount="indefinite"/>
        <animate attributeName="cy" values="345;160;145;145;145;160;345" keyTimes="0;0.15;0.2;0.5;0.8;0.85;1" dur="12s" repeatCount="indefinite"/>
    </circle>
    <circle cx="463" cy="105" r="12" fill="url(#paint7_linear_23_1602)">
        <animate attributeName="cx" values="650;185;145;145;145;185;650" keyTimes="0;0.3;0.35;0.5;0.65;0.7;1" dur="12s" repeatCount="indefinite"/>
        <animate attributeName="cy" values="105;105;120;345;120;105;105" keyTimes="0;0.3;0.35;0.5;0.65;0.7;1" dur="12s" repeatCount="indefinite"/>
    </circle>
    
    <defs>
        <linearGradient id="paint0_linear_23_1602" x1="524.5" y1="62" x2="524.5" y2="84.5" gradientUnits="userSpaceOnUse">
            <stop stop-color="#56ED65"/>
            <stop offset="1" stop-color="#04470A"/>
        </linearGradient>
        <linearGradient id="paint1_linear_23_1602" x1="639.5" y1="163" x2="639.5" y2="185.5" gradientUnits="userSpaceOnUse">
            <stop stop-color="#56ED65"/>
            <stop offset="1" stop-color="#04470A"/>
        </linearGradient>
        <linearGradient id="paint2_linear_23_1602" x1="381.5" y1="163" x2="381.5" y2="185.5" gradientUnits="userSpaceOnUse">
            <stop stop-color="#56ED65"/>
            <stop offset="1" stop-color="#04470A"/>
        </linearGradient>
        <linearGradient id="paint3_linear_23_1602" x1="229.5" y1="318" x2="229.5" y2="340.5" gradientUnits="userSpaceOnUse">
            <stop stop-color="#56ED65"/>
            <stop offset="1" stop-color="#04470A"/>
        </linearGradient>
        <linearGradient id="paint4_linear_23_1602" x1="150.5" y1="62" x2="150.5" y2="84.5" gradientUnits="userSpaceOnUse">
            <stop stop-color="#56ED65"/>
            <stop offset="1" stop-color="#04470A"/>
        </linearGradient>
        <linearGradient id="paint5_linear_23_1602" x1="110.5" y1="282" x2="110.5" y2="304.5" gradientUnits="userSpaceOnUse">
            <stop stop-color="#56ED65"/>
            <stop offset="1" stop-color="#04470A"/>
        </linearGradient>
        <linearGradient id="paint6_linear_23_1602" x1="176" y1="233" x2="176" y2="257" gradientUnits="userSpaceOnUse">
            <stop stop-color="#EFB034"/>
            <stop offset="0.656265" stop-color="#D14F06"/>
        </linearGradient>
        <linearGradient id="paint7_linear_23_1602" x1="463" y1="109" x2="463" y2="133" gradientUnits="userSpaceOnUse">
            <stop stop-color="#EFB034"/>
            <stop offset="0.656265" stop-color="#D14F06"/>
        </linearGradient>
    </defs>
</svg>