<svg width="168" height="24" viewBox="0 0 168 24" fill="none" xmlns="http://www.w3.org/2000/svg">
<path d="M21.7566 14.8376C21.4026 15.1446 21.24 15.5887 21.3206 16.0243L22.5356 22.0435C22.6381 22.5537 22.3976 23.07 21.9206 23.3648C21.4532 23.6707 20.8313 23.7074 20.3216 23.4627L14.2684 20.6366C14.0579 20.5363 13.8242 20.4824 13.585 20.4763H13.2146C13.0862 20.4934 12.9604 20.5301 12.8456 20.5864L6.79105 23.426C6.49174 23.5606 6.15279 23.6083 5.82068 23.5606C5.01159 23.4235 4.47173 22.7335 4.6043 22.0056L5.82068 15.9864C5.90132 15.5471 5.73868 15.1006 5.3847 14.7886L0.449481 10.5066C0.0367317 10.1482 -0.106774 9.60988 0.0818333 9.12418C0.264974 8.6397 0.732391 8.28613 1.29685 8.20661L8.08943 7.32452C8.60605 7.27681 9.0598 6.99542 9.29215 6.57946L12.2853 1.08629C12.3563 0.963952 12.4479 0.851397 12.5586 0.75597L12.6816 0.67033C12.7458 0.606712 12.8196 0.554105 12.9016 0.511285L13.0506 0.462349L13.283 0.376709H13.8584C14.3722 0.424422 14.8246 0.699693 15.0611 1.11076L18.0938 6.57946C18.3125 6.97952 18.7375 7.25724 19.2282 7.32452L26.0208 8.20661C26.5948 8.28002 27.0745 8.63481 27.2645 9.12418C27.4435 9.61477 27.2891 10.1531 26.8681 10.5066L21.7566 14.8376Z" fill="#FEB60D"/>
<path d="M56.9053 14.8376C56.5513 15.1446 56.3887 15.5887 56.4693 16.0243L57.6843 22.0435C57.7868 22.5537 57.5463 23.07 57.0693 23.3648C56.6019 23.6707 55.98 23.7074 55.4702 23.4627L49.417 20.6366C49.2066 20.5363 48.9729 20.4824 48.7337 20.4763H48.3633C48.2348 20.4934 48.1091 20.5301 47.9943 20.5864L41.9397 23.426C41.6404 23.5606 41.3015 23.6083 40.9694 23.5606C40.1603 23.4235 39.6204 22.7335 39.753 22.0056L40.9694 15.9864C41.05 15.5471 40.8874 15.1006 40.5334 14.7886L35.5982 10.5066C35.1854 10.1482 35.0419 9.60988 35.2305 9.12418C35.4137 8.6397 35.8811 8.28613 36.4455 8.20661L43.2381 7.32452C43.7547 7.27681 44.2085 6.99542 44.4408 6.57946L47.4339 1.08629C47.505 0.963952 47.5966 0.851397 47.7073 0.75597L47.8303 0.67033C47.8945 0.606712 47.9683 0.554105 48.0503 0.511285L48.1993 0.462349L48.4316 0.376709H49.007C49.5209 0.424422 49.9733 0.699693 50.2097 1.11076L53.2425 6.57946C53.4612 6.97952 53.8862 7.25724 54.3769 7.32452L61.1695 8.20661C61.7435 8.28002 62.2232 8.63481 62.4132 9.12418C62.5922 9.61477 62.4378 10.1531 62.0168 10.5066L56.9053 14.8376Z" fill="#FEB60D"/>
<path d="M92.0542 14.8376C91.7002 15.1446 91.5376 15.5887 91.6182 16.0243L92.8333 22.0435C92.9358 22.5537 92.6952 23.07 92.2182 23.3648C91.7508 23.6707 91.129 23.7074 90.6192 23.4627L84.566 20.6366C84.3555 20.5363 84.1218 20.4824 83.8826 20.4763H83.5122C83.3838 20.4934 83.258 20.5301 83.1432 20.5864L77.0887 23.426C76.7893 23.5606 76.4504 23.6083 76.1183 23.5606C75.3092 23.4235 74.7693 22.7335 74.9019 22.0056L76.1183 15.9864C76.1989 15.5471 76.0363 15.1006 75.6823 14.7886L70.7471 10.5066C70.3343 10.1482 70.1908 9.60988 70.3794 9.12418C70.5626 8.6397 71.03 8.28613 71.5945 8.20661L78.387 7.32452C78.9037 7.27681 79.3574 6.99542 79.5898 6.57946L82.5829 1.08629C82.6539 0.963952 82.7455 0.851397 82.8562 0.75597L82.9792 0.67033C83.0434 0.606712 83.1173 0.554105 83.1993 0.511285L83.3482 0.462349L83.5806 0.376709H84.156C84.6698 0.424422 85.1222 0.699693 85.3587 1.11076L88.3914 6.57946C88.6101 6.97952 89.0351 7.25724 89.5258 7.32452L96.3184 8.20661C96.8924 8.28002 97.3721 8.63481 97.5621 9.12418C97.7411 9.61477 97.5867 10.1531 97.1657 10.5066L92.0542 14.8376Z" fill="#FEB60D"/>
<path d="M127.203 14.8376C126.849 15.1446 126.686 15.5887 126.767 16.0243L127.982 22.0435C128.084 22.5537 127.844 23.07 127.367 23.3648C126.899 23.6707 126.278 23.7074 125.768 23.4627L119.715 20.6366C119.504 20.5363 119.27 20.4824 119.031 20.4763H118.661C118.532 20.4934 118.407 20.5301 118.292 20.5864L112.237 23.426C111.938 23.5606 111.599 23.6083 111.267 23.5606C110.458 23.4235 109.918 22.7335 110.051 22.0056L111.267 15.9864C111.348 15.5471 111.185 15.1006 110.831 14.7886L105.896 10.5066C105.483 10.1482 105.34 9.60988 105.528 9.12418C105.711 8.6397 106.179 8.28613 106.743 8.20661L113.536 7.32452C114.052 7.27681 114.506 6.99542 114.738 6.57946L117.732 1.08629C117.803 0.963952 117.894 0.851397 118.005 0.75597L118.128 0.67033C118.192 0.606712 118.266 0.554105 118.348 0.511285L118.497 0.462349L118.729 0.376709H119.305C119.819 0.424422 120.271 0.699693 120.507 1.11076L123.54 6.57946C123.759 6.97952 124.184 7.25724 124.674 7.32452L131.467 8.20661C132.041 8.28002 132.521 8.63481 132.711 9.12418C132.89 9.61477 132.735 10.1531 132.314 10.5066L127.203 14.8376Z" fill="#FEB60D"/>
<path d="M162.352 14.8376C161.998 15.1446 161.835 15.5887 161.916 16.0243L163.131 22.0435C163.233 22.5537 162.993 23.07 162.516 23.3648C162.048 23.6707 161.426 23.7074 160.917 23.4627L154.863 20.6366C154.653 20.5363 154.419 20.4824 154.18 20.4763H153.81C153.681 20.4934 153.555 20.5301 153.441 20.5864L147.386 23.426C147.087 23.5606 146.748 23.6083 146.416 23.5606C145.607 23.4235 145.067 22.7335 145.199 22.0056L146.416 15.9864C146.496 15.5471 146.334 15.1006 145.98 14.7886L141.044 10.5066C140.632 10.1482 140.488 9.60988 140.677 9.12418C140.86 8.6397 141.327 8.28613 141.892 8.20661L148.684 7.32452C149.201 7.27681 149.655 6.99542 149.887 6.57946L152.88 1.08629C152.951 0.963952 153.043 0.851397 153.154 0.75597L153.277 0.67033C153.341 0.606712 153.415 0.554105 153.497 0.511285L153.646 0.462349L153.878 0.376709H154.453C154.967 0.424422 155.42 0.699693 155.656 1.11076L158.689 6.57946C158.907 6.97952 159.333 7.25724 159.823 7.32452L166.616 8.20661C167.19 8.28002 167.669 8.63481 167.859 9.12418C168.038 9.61477 167.884 10.1531 167.463 10.5066L162.352 14.8376Z" fill="#FEB60D"/>
</svg>
