<svg width="25" height="24" viewBox="0 0 25 24" fill="none" xmlns="http://www.w3.org/2000/svg">
<path d="M14.5596 8H15.5596C15.8248 8 16.0791 7.89464 16.2667 7.70711C16.4542 7.51957 16.5596 7.26522 16.5596 7C16.5596 6.73478 16.4542 6.48043 16.2667 6.29289C16.0791 6.10536 15.8248 6 15.5596 6H14.5596C14.2944 6 14.04 6.10536 13.8525 6.29289C13.6649 6.48043 13.5596 6.73478 13.5596 7C13.5596 7.26522 13.6649 7.51957 13.8525 7.70711C14.04 7.89464 14.2944 8 14.5596 8ZM14.5596 12H15.5596C15.8248 12 16.0791 11.8946 16.2667 11.7071C16.4542 11.5196 16.5596 11.2652 16.5596 11C16.5596 10.7348 16.4542 10.4804 16.2667 10.2929C16.0791 10.1054 15.8248 10 15.5596 10H14.5596C14.2944 10 14.04 10.1054 13.8525 10.2929C13.6649 10.4804 13.5596 10.7348 13.5596 11C13.5596 11.2652 13.6649 11.5196 13.8525 11.7071C14.04 11.8946 14.2944 12 14.5596 12ZM9.55957 8H10.5596C10.8248 8 11.0791 7.89464 11.2667 7.70711C11.4542 7.51957 11.5596 7.26522 11.5596 7C11.5596 6.73478 11.4542 6.48043 11.2667 6.29289C11.0791 6.10536 10.8248 6 10.5596 6H9.55957C9.29435 6 9.04 6.10536 8.85246 6.29289C8.66493 6.48043 8.55957 6.73478 8.55957 7C8.55957 7.26522 8.66493 7.51957 8.85246 7.70711C9.04 7.89464 9.29435 8 9.55957 8ZM9.55957 12H10.5596C10.8248 12 11.0791 11.8946 11.2667 11.7071C11.4542 11.5196 11.5596 11.2652 11.5596 11C11.5596 10.7348 11.4542 10.4804 11.2667 10.2929C11.0791 10.1054 10.8248 10 10.5596 10H9.55957C9.29435 10 9.04 10.1054 8.85246 10.2929C8.66493 10.4804 8.55957 10.7348 8.55957 11C8.55957 11.2652 8.66493 11.5196 8.85246 11.7071C9.04 11.8946 9.29435 12 9.55957 12ZM21.5596 20H20.5596V3C20.5596 2.73478 20.4542 2.48043 20.2667 2.29289C20.0791 2.10536 19.8248 2 19.5596 2H5.55957C5.29435 2 5.04 2.10536 4.85246 2.29289C4.66493 2.48043 4.55957 2.73478 4.55957 3V20H3.55957C3.29435 20 3.04 20.1054 2.85246 20.2929C2.66493 20.4804 2.55957 20.7348 2.55957 21C2.55957 21.2652 2.66493 21.5196 2.85246 21.7071C3.04 21.8946 3.29435 22 3.55957 22H21.5596C21.8248 22 22.0791 21.8946 22.2667 21.7071C22.4542 21.5196 22.5596 21.2652 22.5596 21C22.5596 20.7348 22.4542 20.4804 22.2667 20.2929C22.0791 20.1054 21.8248 20 21.5596 20ZM13.5596 20H11.5596V16H13.5596V20ZM18.5596 20H15.5596V15C15.5596 14.7348 15.4542 14.4804 15.2667 14.2929C15.0791 14.1054 14.8248 14 14.5596 14H10.5596C10.2944 14 10.04 14.1054 9.85246 14.2929C9.66493 14.4804 9.55957 14.7348 9.55957 15V20H6.55957V4H18.5596V20Z" fill="#E6E6E6"/>
</svg>
