<svg width="36" height="36" viewBox="0 0 36 36" fill="none" xmlns="http://www.w3.org/2000/svg">
<path d="M26.9999 6.71999C24.6129 4.33304 21.3755 2.99207 17.9999 2.99207C14.6242 2.99207 11.3868 4.33304 8.99989 6.71999C6.61295 9.10694 5.27197 12.3443 5.27197 15.72C5.27197 19.0956 6.61295 22.333 8.99989 24.72L16.9049 32.64C17.0443 32.7806 17.2102 32.8922 17.393 32.9683C17.5758 33.0445 17.7719 33.0837 17.9699 33.0837C18.1679 33.0837 18.364 33.0445 18.5468 32.9683C18.7295 32.8922 18.8954 32.7806 19.0349 32.64L26.9999 24.645C29.3769 22.268 30.7122 19.0441 30.7122 15.6825C30.7122 12.3209 29.3769 9.097 26.9999 6.71999ZM24.8549 22.5L17.9999 29.385L11.1449 22.5C9.79061 21.1445 8.86861 19.4179 8.49544 17.5384C8.12226 15.659 8.31468 13.7111 9.04835 11.941C9.78202 10.1709 11.024 8.65806 12.6173 7.5937C14.2107 6.52934 16.0838 5.96126 17.9999 5.96126C19.916 5.96126 21.7891 6.52934 23.3824 7.5937C24.9758 8.65806 26.2178 10.1709 26.9514 11.941C27.6851 13.7111 27.8775 15.659 27.5044 17.5384C27.1312 19.4179 26.2092 21.1445 24.8549 22.5ZM13.4999 11.115C12.289 12.3296 11.609 13.9748 11.609 15.69C11.609 17.4051 12.289 19.0503 13.4999 20.265C14.3995 21.1662 15.5453 21.7816 16.7934 22.0341C18.0415 22.2866 19.3363 22.1649 20.5155 21.6842C21.6947 21.2036 22.7057 20.3854 23.4216 19.3324C24.1376 18.2793 24.5266 17.0383 24.5399 15.765C24.5467 14.9148 24.3829 14.0719 24.0583 13.2861C23.7336 12.5003 23.2547 11.7875 22.6499 11.19C22.0554 10.5819 21.3465 10.0973 20.564 9.76419C19.7815 9.43108 18.9409 9.256 18.0905 9.24903C17.2401 9.24206 16.3967 9.40333 15.6089 9.72357C14.821 10.0438 14.1043 10.5167 13.4999 11.115ZM20.5349 18.135C19.9665 18.7121 19.2152 19.0738 18.4096 19.1584C17.604 19.2429 16.794 19.0449 16.1182 18.5984C15.4423 18.1518 14.9426 17.4844 14.7044 16.7101C14.4662 15.9359 14.5044 15.1029 14.8123 14.3537C15.1203 13.6045 15.6789 12.9855 16.3928 12.6026C17.1066 12.2197 17.9313 12.0966 18.7258 12.2544C19.5203 12.4122 20.2354 12.8411 20.7487 13.4678C21.262 14.0944 21.5416 14.8799 21.5399 15.69C21.5181 16.6159 21.1296 17.4953 20.4599 18.135H20.5349Z" fill="url(#paint0_linear_23_1398)"/>
<defs>
<linearGradient id="paint0_linear_23_1398" x1="17.9921" y1="2.99207" x2="17.9921" y2="33.0837" gradientUnits="userSpaceOnUse">
<stop stop-color="#FD9433"/>
<stop offset="1" stop-color="#8B480A"/>
</linearGradient>
</defs>
</svg>
